<svg xmlns="http://www.w3.org/2000/svg" xmlns:xlink="http://www.w3.org/1999/xlink" width="80" zoomAndPan="magnify" viewBox="0 0 60 44.999999" height="60" preserveAspectRatio="xMidYMid meet" version="1.0"><defs><g/><clipPath id="01a7e27621"><path d="M 11.550781 0 L 51 0 L 51 45 L 11.550781 45 Z M 11.550781 0 " clip-rule="nonzero"/></clipPath><clipPath id="f21257b1c7"><path d="M 44 33 L 50.5625 33 L 50.5625 38.839844 L 44 38.839844 Z M 44 33 " clip-rule="nonzero"/></clipPath><clipPath id="87d65c2e3b"><path d="M 12.3125 33 L 19 33 L 19 38.839844 L 12.3125 38.839844 Z M 12.3125 33 " clip-rule="nonzero"/></clipPath><clipPath id="386e71b55d"><path d="M 15 35 L 19 35 L 19 38.839844 L 15 38.839844 Z M 15 35 " clip-rule="nonzero"/></clipPath><clipPath id="994a75e2a3"><path d="M 44 35 L 48 35 L 48 38.839844 L 44 38.839844 Z M 44 35 " clip-rule="nonzero"/></clipPath><clipPath id="6d23d8870e"><path d="M 15 29.089844 L 48 29.089844 L 48 38 L 15 38 Z M 15 29.089844 " clip-rule="nonzero"/></clipPath><clipPath id="ff7ed8f81a"><path d="M 23.582031 5.59375 L 39 5.59375 L 39 28.84375 L 23.582031 28.84375 Z M 23.582031 5.59375 " clip-rule="nonzero"/></clipPath></defs><g clip-path="url(#01a7e27621)"><path fill="#ffffff" d="M 13.453125 8.03125 C 13.277344 10.46875 13.160156 16.21875 15.121094 22.746094 C 17.242188 29.800781 21.796875 37.753906 31.347656 43.355469 C 40.902344 37.753906 45.457031 29.800781 47.578125 22.746094 C 49.539062 16.21875 49.421875 10.46875 49.246094 8.03125 C 44.140625 7.839844 40.066406 6.554688 37.023438 5.089844 C 34.3125 3.789062 32.417969 2.34375 31.347656 1.410156 C 30.28125 2.34375 28.386719 3.789062 25.675781 5.089844 C 22.632812 6.554688 18.558594 7.839844 13.453125 8.03125 Z M 13.773438 23.148438 C 11.550781 15.75 11.914062 9.289062 12.105469 7.28125 L 12.164062 6.65625 L 12.792969 6.644531 C 17.957031 6.546875 22.050781 5.273438 25.070312 3.824219 C 28.070312 2.382812 30.003906 0.761719 30.867188 -0.0507812 L 31.347656 -0.503906 L 31.832031 -0.0507812 C 32.695312 0.761719 34.628906 2.382812 37.628906 3.824219 C 40.648438 5.273438 44.742188 6.546875 49.90625 6.644531 L 50.535156 6.65625 L 50.59375 7.28125 C 50.785156 9.289062 51.148438 15.75 48.925781 23.148438 C 46.695312 30.570312 41.875 38.949219 31.699219 44.785156 L 31.347656 44.984375 L 31 44.785156 C 20.824219 38.949219 16.003906 30.570312 13.773438 23.148438 " fill-opacity="1" fill-rule="nonzero"/></g><g clip-path="url(#f21257b1c7)"><path fill="#ffffff" d="M 50.007812 38.976562 L 44.40625 38.976562 L 44.40625 33.378906 L 50.007812 33.378906 L 48.664062 36.179688 L 50.007812 38.976562 " fill-opacity="1" fill-rule="nonzero"/><path fill="#000543" d="M 50.007812 38.976562 L 50.007812 38.824219 L 44.554688 38.824219 L 44.554688 33.53125 L 49.765625 33.53125 L 48.527344 36.113281 C 48.507812 36.15625 48.507812 36.203125 48.527344 36.246094 L 49.871094 39.042969 L 50.007812 38.976562 L 50.007812 38.824219 L 50.007812 38.976562 L 50.144531 38.914062 L 48.832031 36.179688 L 50.144531 33.445312 C 50.164062 33.398438 50.164062 33.34375 50.136719 33.300781 C 50.105469 33.253906 50.058594 33.230469 50.007812 33.230469 L 44.40625 33.230469 C 44.363281 33.230469 44.324219 33.246094 44.296875 33.273438 C 44.269531 33.300781 44.253906 33.339844 44.253906 33.378906 L 44.253906 38.976562 C 44.253906 39.019531 44.269531 39.058594 44.296875 39.085938 C 44.324219 39.113281 44.363281 39.128906 44.40625 39.128906 L 50.007812 39.128906 C 50.058594 39.128906 50.105469 39.101562 50.136719 39.058594 C 50.164062 39.015625 50.164062 38.960938 50.144531 38.914062 L 50.007812 38.976562 " fill-opacity="1" fill-rule="nonzero"/></g><g clip-path="url(#87d65c2e3b)"><path fill="#ffffff" d="M 12.59375 38.976562 L 18.195312 38.976562 L 18.195312 33.378906 L 12.59375 33.378906 L 13.9375 36.179688 L 12.59375 38.976562 " fill-opacity="1" fill-rule="nonzero"/><path fill="#000543" d="M 12.59375 38.976562 L 12.59375 39.128906 L 18.195312 39.128906 C 18.238281 39.128906 18.277344 39.113281 18.304688 39.085938 C 18.332031 39.058594 18.347656 39.019531 18.347656 38.976562 L 18.347656 33.378906 C 18.347656 33.339844 18.332031 33.300781 18.304688 33.273438 C 18.277344 33.246094 18.238281 33.230469 18.195312 33.230469 L 12.59375 33.230469 C 12.542969 33.230469 12.496094 33.253906 12.464844 33.300781 C 12.4375 33.34375 12.4375 33.398438 12.457031 33.445312 L 13.769531 36.179688 L 12.457031 38.914062 C 12.4375 38.960938 12.4375 39.015625 12.464844 39.058594 C 12.496094 39.101562 12.542969 39.128906 12.59375 39.128906 L 12.59375 38.976562 L 12.730469 39.042969 L 14.074219 36.246094 C 14.09375 36.203125 14.09375 36.15625 14.074219 36.113281 L 12.835938 33.53125 L 18.046875 33.53125 L 18.046875 38.824219 L 12.59375 38.824219 L 12.59375 38.976562 L 12.730469 39.042969 L 12.59375 38.976562 " fill-opacity="1" fill-rule="nonzero"/></g><g clip-path="url(#386e71b55d)"><path fill="#ffffff" d="M 18.195312 38.976562 L 15.394531 37.421875 L 15.394531 35.722656 L 18.195312 35.722656 L 18.195312 38.976562 " fill-opacity="1" fill-rule="nonzero"/><path fill="#000543" d="M 18.195312 38.976562 L 18.269531 38.84375 L 15.546875 37.332031 L 15.546875 35.875 L 18.046875 35.875 L 18.046875 38.976562 L 18.195312 38.976562 L 18.269531 38.84375 L 18.195312 38.976562 L 18.347656 38.976562 L 18.347656 35.722656 C 18.347656 35.683594 18.332031 35.644531 18.304688 35.617188 C 18.277344 35.589844 18.238281 35.574219 18.195312 35.574219 L 15.394531 35.574219 C 15.355469 35.574219 15.316406 35.589844 15.289062 35.617188 C 15.261719 35.644531 15.246094 35.683594 15.246094 35.722656 L 15.246094 37.421875 C 15.246094 37.476562 15.273438 37.527344 15.324219 37.554688 L 18.125 39.109375 C 18.171875 39.136719 18.226562 39.136719 18.273438 39.109375 C 18.320312 39.082031 18.347656 39.03125 18.347656 38.976562 L 18.195312 38.976562 " fill-opacity="1" fill-rule="nonzero"/></g><g clip-path="url(#994a75e2a3)"><path fill="#ffffff" d="M 44.40625 38.976562 L 47.207031 37.421875 L 47.207031 35.722656 L 44.40625 35.722656 L 44.40625 38.976562 " fill-opacity="1" fill-rule="nonzero"/><path fill="#000543" d="M 44.40625 38.976562 L 44.476562 39.109375 L 47.277344 37.554688 C 47.328125 37.527344 47.355469 37.476562 47.355469 37.421875 L 47.355469 35.722656 C 47.355469 35.683594 47.339844 35.644531 47.3125 35.617188 C 47.285156 35.589844 47.246094 35.574219 47.207031 35.574219 L 44.40625 35.574219 C 44.363281 35.574219 44.324219 35.589844 44.296875 35.617188 C 44.269531 35.644531 44.253906 35.683594 44.253906 35.722656 L 44.253906 38.976562 C 44.253906 39.03125 44.28125 39.082031 44.328125 39.109375 C 44.375 39.136719 44.429688 39.136719 44.476562 39.109375 L 44.40625 38.976562 L 44.554688 38.976562 L 44.554688 35.875 L 47.054688 35.875 L 47.054688 37.332031 L 44.332031 38.84375 L 44.40625 38.976562 L 44.554688 38.976562 L 44.40625 38.976562 " fill-opacity="1" fill-rule="nonzero"/></g><g clip-path="url(#6d23d8870e)"><path fill="#ffffff" d="M 47.207031 37.421875 C 36.648438 34.683594 25.953125 34.683594 15.394531 37.421875 C 15.394531 35.554688 15.394531 33.6875 15.394531 31.824219 C 25.953125 29.085938 36.648438 29.085938 47.207031 31.824219 C 47.207031 33.6875 47.207031 35.554688 47.207031 37.421875 " fill-opacity="1" fill-rule="nonzero"/><path fill="#000543" d="M 47.207031 37.421875 L 47.242188 37.273438 C 41.953125 35.902344 36.628906 35.214844 31.304688 35.214844 C 25.976562 35.214844 20.648438 35.902344 15.359375 37.273438 L 15.394531 37.421875 L 15.546875 37.421875 C 15.546875 35.554688 15.546875 33.6875 15.546875 31.824219 L 15.394531 31.824219 L 15.433594 31.96875 C 20.699219 30.605469 26 29.921875 31.300781 29.921875 C 36.601562 29.921875 41.902344 30.605469 47.167969 31.96875 L 47.207031 31.824219 L 47.054688 31.824219 C 47.054688 33.6875 47.054688 35.554688 47.054688 37.421875 L 47.207031 37.421875 L 47.242188 37.273438 L 47.207031 37.421875 L 47.355469 37.421875 C 47.355469 35.554688 47.355469 33.6875 47.355469 31.824219 C 47.355469 31.753906 47.308594 31.695312 47.242188 31.675781 C 41.953125 30.304688 36.625 29.617188 31.300781 29.617188 C 25.976562 29.617188 20.648438 30.304688 15.359375 31.675781 C 15.292969 31.695312 15.246094 31.753906 15.246094 31.824219 C 15.246094 33.6875 15.246094 35.554688 15.246094 37.421875 C 15.246094 37.46875 15.265625 37.511719 15.304688 37.542969 C 15.339844 37.570312 15.390625 37.582031 15.433594 37.566406 C 20.703125 36.203125 26.003906 35.519531 31.304688 35.519531 C 36.601562 35.519531 41.902344 36.203125 47.167969 37.566406 C 47.210938 37.582031 47.261719 37.570312 47.296875 37.542969 C 47.335938 37.511719 47.355469 37.46875 47.355469 37.421875 L 47.207031 37.421875 " fill-opacity="1" fill-rule="nonzero"/></g><g clip-path="url(#ff7ed8f81a)"><path fill="#ffffff" d="M 36.039062 27.894531 C 34.917969 28.582031 33.671875 28.921875 32.421875 29.078125 L 32.421875 28.828125 C 33.699219 28.046875 36.851562 25.648438 34.480469 21.9375 C 32.949219 19.539062 29.953125 18.164062 27.523438 16.824219 C 25.214844 15.511719 23.59375 13.050781 23.6875 10.457031 C 23.75 8.492188 25.375 6.714844 27.246094 6.027344 C 27.777344 5.839844 28.304688 5.71875 28.835938 5.625 L 28.835938 5.8125 C 27.648438 6.3125 25.808594 7.621094 26.710938 10.707031 C 27.246094 12.546875 28.863281 13.699219 30.488281 14.605469 C 32.390625 15.632812 34.230469 16.601562 35.789062 18.101562 C 39.097656 21.25 38.78125 26.269531 36.039062 27.894531 Z M 24.871094 22.03125 C 24.625 25.960938 26.527344 27.707031 28.644531 28.675781 L 28.644531 28.953125 C 25.964844 28.550781 23.9375 27.613281 23.9375 27.613281 L 24.4375 22.03125 Z M 36.472656 12.546875 C 36.503906 8.929688 34.601562 6.683594 32.605469 5.78125 L 32.605469 5.59375 C 35.289062 5.964844 37.378906 6.996094 37.378906 6.996094 L 36.914062 12.546875 Z M 36.472656 12.546875 " fill-opacity="1" fill-rule="nonzero"/></g><path stroke-linecap="butt" transform="matrix(0.127195, -0.0256733, 0.0256733, 0.127195, 20.947047, 31.7235)" fill="none" stroke-linejoin="miter" d="M 13.264285 10.901148 L 11.144807 10.903299 L 11.136972 8.65983 L 9.616611 7.063105 L 5.714162 7.073906 L 4.395197 8.435355 L 4.394902 11.936324 L 5.638316 13.231464 L 10.922257 13.22311 L 13.509252 15.92574 L 13.517607 21.209681 L 10.867766 23.991596 L 4.444358 24.015645 L 1.786706 21.20662 L 1.792414 17.98314 L 3.911892 17.980989 L 3.890218 20.218502 L 5.440087 21.821184 L 9.862051 21.82311 L 11.151507 20.455705 L 11.152346 16.647737 L 9.926528 15.41757 L 4.642587 15.425925 L 2.03204 12.68783 L 2.029097 7.681379 L 4.684894 4.869955 L 10.606384 4.898152 L 13.269993 7.677668 Z M 13.264285 10.901148 " stroke="#000543" stroke-width="1.593306" stroke-opacity="1" stroke-miterlimit="4"/><path stroke-linecap="butt" transform="matrix(0.128563, -0.0175851, 0.0175851, 0.128563, 23.66737, 31.192293)" fill="none" stroke-linejoin="miter" d="M 11.427473 4.898418 L 17.081175 4.88176 L 17.076271 6.916817 L 15.556415 6.921616 L 15.547835 21.20092 L 12.886602 23.996846 L 5.959811 23.991288 L 3.303587 21.197244 L 3.312167 6.917939 L 1.792311 6.922738 L 1.797215 4.887681 L 7.450917 4.871023 L 7.441933 6.935906 L 5.649564 6.933814 L 5.653497 20.45523 L 6.955863 21.818346 L 11.877423 21.823081 L 13.218872 20.456983 L 13.214939 6.935567 L 11.422569 6.933475 Z M 11.427473 4.898418 " stroke="#000543" stroke-width="1.593306" stroke-opacity="1" stroke-miterlimit="4"/><path stroke-linecap="butt" transform="matrix(0.129425, -0.0093138, 0.0093138, 0.129425, 26.877699, 30.78492)" fill="none" stroke-linejoin="miter" d="M 2.041967 4.887273 L 12.242628 4.896985 L 14.879251 7.682336 L 14.880428 13.537639 L 12.232243 16.365222 L 6.166757 16.351274 L 6.155195 21.964208 L 8.207769 21.96101 L 8.210968 24.013584 L 2.055404 23.993154 L 2.050045 21.970605 L 3.832385 21.94796 L 3.827506 6.917202 L 2.047326 6.909822 Z M 6.169537 7.085742 L 6.174363 14.148569 L 11.214641 14.149103 L 12.680333 12.654957 L 12.701801 8.581994 L 11.242003 7.058411 Z M 6.169537 7.085742 " stroke="#000543" stroke-width="1.593306" stroke-opacity="1" stroke-miterlimit="4"/><path stroke-linecap="butt" transform="matrix(0.129754, -0.00119754, 0.00119754, 0.129754, 29.721495, 30.601051)" fill="none" stroke-linejoin="miter" d="M 2.041246 4.869682 L 12.246795 4.873557 L 14.900072 7.697808 L 14.878499 13.297133 L 12.233474 16.102588 L 14.948997 21.968015 L 16.273781 21.950137 L 16.284991 23.997378 L 11.498153 24.013409 L 11.486943 21.966168 L 12.4806 21.945234 L 9.764799 16.109909 L 6.152232 16.106673 L 6.158539 21.947095 L 7.693762 21.961264 L 7.704972 24.008506 L 2.045442 23.986377 L 2.033954 21.969238 L 3.810274 21.955527 L 3.828499 6.933315 L 2.052457 6.916924 Z M 6.175375 7.075395 L 6.172514 13.909197 L 11.200171 13.895389 L 12.68908 12.403882 L 12.694261 8.580599 L 11.233135 7.061865 Z M 6.175375 7.075395 " stroke="#000543" stroke-width="1.593306" stroke-opacity="1" stroke-miterlimit="4"/><path stroke-linecap="butt" transform="matrix(0.129572, 0.0069799, -0.0069799, 0.129572, 32.819944, 30.600507)" fill="none" stroke-linejoin="miter" d="M 2.044008 4.872348 L 14.163796 4.882709 L 14.162059 9.887261 L 12.141555 9.875514 L 12.133164 6.921527 L 6.16345 6.911488 L 6.152499 13.423903 L 12.122212 13.433941 L 12.140526 15.452826 L 6.172431 15.472848 L 6.159861 21.955203 L 12.129574 21.965241 L 12.121183 19.011254 L 14.170128 18.991322 L 14.168392 23.995873 L 2.048604 23.985512 L 2.030291 21.966627 L 3.808695 21.961268 L 3.812285 6.917553 L 2.03388 6.922912 Z M 2.044008 4.872348 " stroke="#000543" stroke-width="1.593306" stroke-opacity="1" stroke-miterlimit="4"/><path stroke-linecap="butt" transform="matrix(0.128734, 0.0162856, -0.0162856, 0.128734, 35.72396, 30.767543)" fill="none" stroke-linejoin="miter" d="M 2.034158 4.886181 L 7.224305 4.897156 L 12.050847 19.063911 L 16.872711 4.890319 L 22.05908 4.871428 L 22.077071 6.932518 L 20.284772 6.916506 L 20.277216 21.967897 L 22.065737 21.954043 L 22.07995 23.985268 L 16.165471 24.005238 L 16.151257 21.974014 L 17.939778 21.96016 L 17.938159 8.275393 L 13.175307 21.956022 L 10.931245 21.966817 L 6.165154 8.277912 L 6.166773 21.962679 L 7.955294 21.948826 L 7.94342 24.013694 L 2.055028 24.000021 L 2.040815 21.968796 L 3.829336 21.954943 L 3.810805 6.937196 L 2.048371 6.917406 Z M 2.034158 4.886181 " stroke="#000543" stroke-width="1.593306" stroke-opacity="1" stroke-miterlimit="4"/><path stroke-linecap="butt" transform="matrix(0.127228, 0.0255069, -0.0255069, 0.127228, 39.619513, 31.308045)" fill="none" stroke-linejoin="miter" d="M 2.034135 4.877374 L 14.160578 4.871763 L 14.180603 9.872289 L 12.12608 9.885047 L 12.148329 6.933127 L 6.161857 6.935897 L 6.170758 13.412383 L 12.127713 13.415531 L 12.140471 15.470054 L 6.153999 15.472824 L 6.1629 21.94931 L 12.119856 21.952458 L 12.142105 19.000537 L 14.167112 18.993697 L 14.157621 24.00014 L 2.031178 24.005751 L 2.047936 21.94531 L 3.830894 21.956293 L 3.823934 6.913364 L 2.046893 6.931897 Z M 2.034135 4.877374 " stroke="#000543" stroke-width="1.593306" stroke-opacity="1" stroke-miterlimit="4"/><g fill="#000000" fill-opacity="1"><g transform="translate(21.563206, 34.776174)"><g><path d="M 1.34375 -2.015625 L 1.078125 -1.953125 L 1.03125 -2.234375 L 0.78125 -2.40625 L 0.28125 -2.296875 L 0.140625 -2.09375 L 0.234375 -1.640625 L 0.4375 -1.515625 L 1.109375 -1.65625 L 1.515625 -1.375 L 1.640625 -0.703125 L 1.375 -0.28125 L 0.5625 -0.109375 L 0.15625 -0.40625 L 0.078125 -0.8125 L 0.328125 -0.859375 L 0.390625 -0.5625 L 0.625 -0.421875 L 1.1875 -0.53125 L 1.328125 -0.71875 L 1.234375 -1.21875 L 1.046875 -1.34375 L 0.375 -1.21875 L -0.03125 -1.484375 L -0.15625 -2.125 L 0.109375 -2.5625 L 0.859375 -2.703125 L 1.265625 -2.421875 Z M 1.34375 -2.015625 "/></g></g></g><g fill="#000000" fill-opacity="1"><g transform="translate(24.089412, 34.277799)"><g><path d="M 1.125 -2.671875 L 1.859375 -2.765625 L 1.90625 -2.5 L 1.703125 -2.46875 L 1.953125 -0.625 L 1.65625 -0.21875 L 0.78125 -0.109375 L 0.390625 -0.421875 L 0.140625 -2.265625 L -0.0625 -2.234375 L -0.109375 -2.5 L 0.609375 -2.59375 L 0.65625 -2.328125 L 0.4375 -2.296875 L 0.671875 -0.546875 L 0.859375 -0.40625 L 1.5 -0.484375 L 1.640625 -0.6875 L 1.40625 -2.4375 L 1.171875 -2.40625 Z M 1.125 -2.671875 "/></g></g></g><g fill="#000000" fill-opacity="1"><g transform="translate(27.10123, 33.891123)"><g><path d="M 0.09375 -2.5 L 1.421875 -2.59375 L 1.78125 -2.265625 L 1.84375 -1.5 L 1.515625 -1.109375 L 0.71875 -1.0625 L 0.78125 -0.328125 L 1.046875 -0.34375 L 1.0625 -0.078125 L 0.265625 -0.015625 L 0.25 -0.28125 L 0.484375 -0.296875 L 0.34375 -2.25 L 0.109375 -2.234375 Z M 0.640625 -2.265625 L 0.703125 -1.34375 L 1.359375 -1.390625 L 1.546875 -1.59375 L 1.515625 -2.125 L 1.296875 -2.3125 Z M 0.640625 -2.265625 "/></g></g></g><g fill="#000000" fill-opacity="1"><g transform="translate(29.750236, 33.715155)"><g><path d="M 0.25 -2.484375 L 1.578125 -2.5 L 1.921875 -2.140625 L 1.921875 -1.40625 L 1.578125 -1.046875 L 1.9375 -0.28125 L 2.109375 -0.28125 L 2.109375 -0.015625 L 1.5 -0.015625 L 1.5 -0.28125 L 1.625 -0.28125 L 1.25 -1.046875 L 0.78125 -1.03125 L 0.796875 -0.265625 L 1 -0.28125 L 1 -0.015625 L 0.265625 0 L 0.265625 -0.265625 L 0.5 -0.265625 L 0.484375 -2.21875 L 0.25 -2.21875 Z M 0.78125 -2.203125 L 0.78125 -1.3125 L 1.4375 -1.328125 L 1.640625 -1.515625 L 1.640625 -2.015625 L 1.4375 -2.21875 Z M 0.78125 -2.203125 "/></g></g></g><g fill="#000000" fill-opacity="1"><g transform="translate(32.652426, 33.710234)"><g><path d="M 0.40625 -2.46875 L 1.984375 -2.390625 L 1.9375 -1.734375 L 1.671875 -1.75 L 1.703125 -2.140625 L 0.921875 -2.171875 L 0.875 -1.328125 L 1.65625 -1.296875 L 1.640625 -1.03125 L 0.859375 -1.0625 L 0.8125 -0.21875 L 1.59375 -0.1875 L 1.609375 -0.578125 L 1.875 -0.5625 L 1.84375 0.09375 L 0.265625 0.015625 L 0.28125 -0.25 L 0.515625 -0.234375 L 0.625 -2.1875 L 0.390625 -2.203125 Z M 0.40625 -2.46875 "/></g></g></g><g fill="#000000" fill-opacity="1"><g transform="translate(35.333105, 33.857155)"><g><path d="M 0.578125 -2.4375 L 1.25 -2.34375 L 1.625 -0.4375 L 2.484375 -2.1875 L 3.171875 -2.109375 L 3.140625 -1.84375 L 2.90625 -1.875 L 2.65625 0.0625 L 2.890625 0.09375 L 2.859375 0.359375 L 2.078125 0.265625 L 2.109375 0 L 2.34375 0.03125 L 2.5625 -1.734375 L 1.734375 -0.046875 L 1.4375 -0.09375 L 1.046875 -1.9375 L 0.828125 -0.171875 L 1.046875 -0.140625 L 1.015625 0.125 L 0.265625 0.03125 L 0.296875 -0.234375 L 0.53125 -0.203125 L 0.78125 -2.140625 L 0.546875 -2.171875 Z M 0.578125 -2.4375 "/></g></g></g><g fill="#000000" fill-opacity="1"><g transform="translate(39.007349, 34.361522)"><g><path d="M 0.75 -2.390625 L 2.296875 -2.078125 L 2.171875 -1.4375 L 1.90625 -1.484375 L 1.984375 -1.859375 L 1.21875 -2.015625 L 1.046875 -1.1875 L 1.8125 -1.03125 L 1.765625 -0.78125 L 1 -0.9375 L 0.828125 -0.109375 L 1.59375 0.046875 L 1.671875 -0.328125 L 1.9375 -0.28125 L 1.8125 0.359375 L 0.265625 0.046875 L 0.3125 -0.21875 L 0.53125 -0.171875 L 0.921875 -2.078125 L 0.703125 -2.125 Z M 0.75 -2.390625 "/></g></g></g></svg>